<svg width="68" height="68" viewBox="0 0 68 68" fill="none" xmlns="http://www.w3.org/2000/svg">
<path d="M36.8333 48.1667H11.3333C12.8773 47.2923 14.1945 46.0677 15.1787 44.5914C16.1629 43.115 16.7868 41.4282 17 39.6667V31.1667C17.1687 27.5714 18.3127 24.0898 20.3092 21.095C22.3057 18.1003 25.0795 15.7052 28.3333 14.1667C28.3333 12.6638 28.9304 11.2224 29.9931 10.1597C31.0558 9.09702 32.4971 8.5 34 8.5C35.5029 8.5 36.9442 9.09702 38.0069 10.1597C39.0696 11.2224 39.6667 12.6638 39.6667 14.1667C42.5579 15.5339 45.0756 17.5801 47.0051 20.1308C48.9346 22.6814 50.2187 25.6608 50.7478 28.815M25.5 48.1667V51C25.4997 52.3651 25.8281 53.7102 26.4576 54.9215C27.087 56.1328 27.999 57.1747 29.1163 57.959C30.2336 58.7433 31.5233 59.247 32.8764 59.4275C34.2296 59.6079 35.6062 59.4598 36.89 58.9957M59.5 42.5H52.4167C51.2895 42.5 50.2085 42.9478 49.4115 43.7448C48.6144 44.5418 48.1667 45.6228 48.1667 46.75C48.1667 47.8772 48.6144 48.9582 49.4115 49.7552C50.2085 50.5522 51.2895 51 52.4167 51H55.25C56.3772 51 57.4582 51.4478 58.2552 52.2448C59.0522 53.0418 59.5 54.1228 59.5 55.25C59.5 56.3772 59.0522 57.4582 58.2552 58.2552C57.4582 59.0522 56.3772 59.5 55.25 59.5H48.1667M53.8333 59.5V62.3333M53.8333 39.6667V42.5" stroke="white" stroke-width="5.66667" stroke-linecap="round" stroke-linejoin="round"/>
</svg>
