<svg width="173" height="138" viewBox="0 0 173 138" fill="none" xmlns="http://www.w3.org/2000/svg">
<g clip-path="url(#clip0_2_48)">
<path d="M49.5938 12.9375H88.4062C89.5922 12.9375 90.5625 13.9078 90.5625 15.0938V25.875H47.4375V15.0938C47.4375 13.9078 48.4078 12.9375 49.5938 12.9375ZM34.5 15.0938V25.875H17.25C7.73555 25.875 0 33.6105 0 43.125V69H97.0852C105.791 58.4613 118.944 51.75 133.688 51.75C135.143 51.75 136.571 51.8039 138 51.9387V43.125C138 33.6105 130.264 25.875 120.75 25.875H103.5V15.0938C103.5 6.76523 96.7348 0 88.4062 0H49.5938C41.2652 0 34.5 6.76523 34.5 15.0938ZM86.25 94.875H60.375C55.6043 94.875 51.75 91.0207 51.75 86.25V77.625H0V112.125C0 121.639 7.73555 129.375 17.25 129.375H97.0852C90.3199 121.181 86.25 110.643 86.25 99.1875C86.25 97.732 86.3039 96.3035 86.4387 94.875H86.25ZM172.5 99.1875C172.5 88.8938 168.411 79.0217 161.132 71.7429C153.853 64.4642 143.981 60.375 133.688 60.375C123.394 60.375 113.522 64.4642 106.243 71.7429C98.9642 79.0217 94.875 88.8938 94.875 99.1875C94.875 109.481 98.9642 119.353 106.243 126.632C113.522 133.911 123.394 138 133.688 138C143.981 138 153.853 133.911 161.132 126.632C168.411 119.353 172.5 109.481 172.5 99.1875ZM133.688 77.625C136.059 77.625 138 79.5656 138 81.9375V94.875H146.625C148.997 94.875 150.938 96.8156 150.938 99.1875C150.938 101.559 148.997 103.5 146.625 103.5H133.688C131.316 103.5 129.375 101.559 129.375 99.1875V81.9375C129.375 79.5656 131.316 77.625 133.688 77.625Z" fill="white"/>
</g>
<defs>
<clipPath id="clip0_2_48">
<rect width="172.5" height="138" fill="white"/>
</clipPath>
</defs>
</svg>
