<svg width="56" height="56" viewBox="0 0 56 56" fill="none" xmlns="http://www.w3.org/2000/svg">
<path d="M28 4.66666C25.6926 4.66666 23.4369 5.35089 21.5183 6.63284C19.5998 7.91479 18.1044 9.73688 17.2214 11.8687C16.3384 14.0005 16.1073 16.3463 16.5575 18.6094C17.0077 20.8725 18.1188 22.9513 19.7504 24.5829C21.382 26.2145 23.4608 27.3257 25.7239 27.7758C27.9871 28.226 30.3328 27.9949 32.4646 27.1119C34.5964 26.2289 36.4185 24.7335 37.7005 22.815C38.9824 20.8964 39.6667 18.6408 39.6667 16.3333C39.6667 13.2391 38.4375 10.2717 36.2496 8.08374C34.0617 5.89582 31.0942 4.66666 28 4.66666ZM28 23.3333C26.6155 23.3333 25.2622 22.9228 24.111 22.1536C22.9599 21.3844 22.0627 20.2912 21.5328 19.0121C21.003 17.733 20.8644 16.3256 21.1345 14.9677C21.4046 13.6098 22.0713 12.3625 23.0503 11.3836C24.0292 10.4046 25.2765 9.73792 26.6344 9.46783C27.9922 9.19773 29.3997 9.33635 30.6788 9.86617C31.9579 10.396 33.0511 11.2932 33.8203 12.4443C34.5895 13.5955 35 14.9489 35 16.3333C35 18.1898 34.2625 19.9703 32.9497 21.2831C31.637 22.5958 29.8565 23.3333 28 23.3333ZM49 49V46.6667C49 42.3348 47.2792 38.1803 44.2161 35.1172C41.153 32.0542 36.9985 30.3333 32.6667 30.3333H23.3333C19.0015 30.3333 14.847 32.0542 11.7839 35.1172C8.72083 38.1803 7 42.3348 7 46.6667V49H11.6667V46.6667C11.6667 43.5725 12.8958 40.605 15.0838 38.4171C17.2717 36.2292 20.2391 35 23.3333 35H32.6667C35.7609 35 38.7283 36.2292 40.9162 38.4171C43.1042 40.605 44.3333 43.5725 44.3333 46.6667V49H49Z" fill="white"/>
</svg>
